HIERARCHY
ROOT pelvis
{
  OFFSET 0 100 0
  CHANNELS 6 Xposition Yposition Zposition Zrotation Xrotation Yrotation
  JOINT pelvis_right_femur
  {
    OFFSET -10.78128 -3.44521 -0.5502486
    CHANNELS 3 Zrotation Xrotation Yrotation
    JOINT right_femur_tibia
    {
      OFFSET -0.8047443 -44.0398 -0.1307829
      CHANNELS 3 Zrotation Xrotation Yrotation
      JOINT right_tibia_foot
      {
        OFFSET 3.006224 -47.83518 -5
        CHANNELS 3 Zrotation Xrotation Yrotation
        End Site
        {
          OFFSET 0 -5 15
        }
      }
    }
  }
  JOINT pelvis_left_femur
  {
    OFFSET 10.78128 -3.44521 -0.5502486
    CHANNELS 3 Zrotation Xrotation Yrotation
    JOINT left_femur_tibia
    {
      OFFSET 0.8047443 -44.0398 -0.1307829
      CHANNELS 3 Zrotation Xrotation Yrotation
      JOINT left_tibia_foot
      {
        OFFSET -4.370144 -48.10324 -4.275266
        CHANNELS 3 Zrotation Xrotation Yrotation
        End Site
        {
          OFFSET 0 -5 15
        }
      }
    }
  }
  JOINT pelvis_spine1
  {
    OFFSET 0 6.468898 -3.129235
    CHANNELS 3 Zrotation Xrotation Yrotation
    JOINT spine1
    {
      OFFSET 0 23.15396 4.99043
      CHANNELS 3 Zrotation Xrotation Yrotation
      JOINT spine2
      {
        OFFSET 0 20.79997 -5.064912
        CHANNELS 3 Zrotation Xrotation Yrotation
        JOINT neck
        {
          OFFSET 0 14.38658 9.616178
          CHANNELS 3 Zrotation Xrotation Yrotation
          End Site
          {
            OFFSET 0 20 0
          }
        }
      }
      JOINT right_manubrium
      {
        OFFSET -5.722621 16.35077 3.967754
        CHANNELS 3 Zrotation Xrotation Yrotation
        JOINT right_clavicle
        {
          OFFSET -13.16364 1.694482 -4.693211
          CHANNELS 3 Zrotation Xrotation Yrotation
          JOINT right_humerus
          {
            OFFSET -28.5034 -0.3100689 -2.792744
            CHANNELS 3 Zrotation Xrotation Yrotation
            JOINT right_radius
            {
              OFFSET -25.15693 0.02248979 -1.271978
              CHANNELS 3 Zrotation Xrotation Yrotation
              End Site
              {
                OFFSET -15 0 0
              }
            }
          }
        }
      }
      JOINT left_manubrium
      {
        OFFSET 5.722621 16.35077 3.967754
        CHANNELS 3 Zrotation Xrotation Yrotation
        JOINT left_clavicle
        {
          OFFSET 13.16364 1.694482 -4.693211
          CHANNELS 3 Zrotation Xrotation Yrotation
          JOINT left_humerus
          {
            OFFSET 29.39168 -1.063119 -2.237045
            CHANNELS 3 Zrotation Xrotation Yrotation
            JOINT left_radius
            {
              OFFSET 24.59957 -0.9528479 0.9047498
              CHANNELS 3 Zrotation Xrotation Yrotation
              End Site
              {
                OFFSET 15 -0 -0
              }
            }
          }
        }
      }
    }
  }
}
MOTION
Frames: 7
Frame Time: 0.0416666666667
0 103.5113 0 0.6404932 -1.634997 -0.3366351 3.941472 -15.40732 10.13617 -0 43.67096 -0 -7.127434 -16.64013 -3.307798 -6.658187 9.558593 -22.78967 -0 5.171173 -0 13.66138 -13.16858 29.50085 -3.702259 -4.137487 4.651438 2.634658 11.17865 -7.95638 1.067898 21.83112 6.499932 3.053584 -23.89376 8.78702 7.822309 -20.73922 12.59651 84.70136 37.66184 -17.40054 -0 0 16.46637 -8.191831 9.047788 5.064579 5.465185 -19.88188 -2.033502 -92.73644 21.35728 21.26807 0 0 -12.94923 13.09961 16.33874 -1.867047
0.3923984 104.1899 1.404875 0.6407657 -1.512081 -0.635858 3.828455 -16.37704 9.432803 -0 42.23704 -0 -7.241458 -15.88549 -3.158938 -6.603687 9.922793 -22.33788 -0 4.680249 -0 13.29437 -13.73731 28.82813 -3.698909 -3.977394 4.517413 2.618726 11.05915 -7.991341 1.015301 21.81655 6.584681 3.133036 -23.78287 8.710996 7.647405 -20.51421 12.51604 84.92244 37.50399 -17.64794 -0 0 15.99835 -8.620065 9.107275 5.231112 5.658341 -20.13284 -2.138764 -92.22882 21.17141 20.5766 0 0 -13.67901 13.19303 16.25217 -2.033953
0.7582379 104.5549 3.313096 0.4923912 -0.3593146 -0.7897376 4.14107 -20.09581 8.060975 -0 35.73745 -0 -6.945515 -14.00152 -2.53719 -6.573863 10.74314 -21.2691 -0 3.939582 -0 11.63054 -16.60437 27.15114 -3.613537 -3.653768 4.562717 2.71209 10.40789 -8.079543 1.09164 21.42984 6.813318 3.419699 -24.35058 8.843265 6.862435 -20.02123 12.06843 85.38303 36.33321 -18.54419 -0 0 15.47205 -8.822997 8.886916 4.999683 6.67463 -20.86871 -1.665368 -91.80766 21.17996 19.58354 0 0 -15.62337 13.35404 16.19467 -2.20178
1.096929 104.6945 5.601811 0.3483943 0.4786696 -0.8162218 4.380089 -22.77328 7.101204 -0 31.27161 -0 -6.810431 -12.40321 -2.125629 -6.518175 11.36631 -20.43508 -0 3.809831 -0 10.22873 -18.52021 25.7287 -3.500823 -3.411994 4.548134 2.773766 9.977847 -8.170165 1.134566 21.11985 6.985339 3.634001 -24.75096 8.919578 6.351923 -19.6351 11.76413 85.73577 35.58209 -19.23317 -0 0 15.04508 -9.046021 8.838023 4.869159 7.352004 -21.38919 -1.357414 -91.49824 21.22619 18.89666 0 0 -17.01158 13.30654 16.12928 -2.132751
1.402652 104.6374 8.312134 0.1744116 1.244608 -0.7152938 4.578812 -25.466 5.991316 -0 26.99405 -0 -6.87659 -10.53052 -1.699046 -6.417886 12.07678 -19.45959 -0 4.038241 -0 8.770619 -20.20597 24.09482 -3.333757 -3.155871 4.451637 2.810436 9.607674 -8.270139 1.160322 20.8258 7.14133 3.848889 -25.06052 8.942085 5.838759 -19.18937 11.47826 86.16396 34.84131 -19.92882 -0 0 14.44544 -9.430074 8.847813 4.78436 8.007349 -21.95906 -1.13411 -91.02197 21.009 17.99637 0 0 -18.36835 13.48291 16.03255 -2.389071
1.674853 104.4304 11.43856 -0.03307568 1.917993 -0.4983837 4.786936 -27.89931 4.961839 -0 23.23341 -0 -7.05267 -8.615957 -1.317168 -6.287689 12.75167 -18.47276 -0 4.753078 -0 7.291571 -21.53724 22.41061 -3.116411 -2.915067 4.317603 2.833666 9.317417 -8.378795 1.174816 20.54143 7.275906 4.046917 -25.31798 8.933251 5.387616 -18.74844 11.23253 86.59952 34.18925 -20.59429 -0 0 13.82574 -9.860072 8.926629 4.723292 8.565507 -22.49329 -0.9744865 -90.55456 20.72056 17.13972 0 0 -19.5569 13.6528 15.91375 -2.658586
1.912468 104.1163 14.99797 -0.2782502 2.488751 -0.1766417 5.002596 -30.12508 3.940314 -0 19.83088 -0 -7.359731 -6.597352 -0.9615455 -6.118168 13.4136 -17.4107 -0 6.037086 -0 5.764001 -22.51307 20.61251 -2.83664 -2.676688 4.135251 2.839929 9.107487 -8.498671 1.172699 20.26934 7.390837 4.231989 -25.50273 8.878281 4.970245 -18.29016 11.02198 87.07762 33.58582 -21.25761 -0 0 13.13177 -10.38791 9.078235 4.698139 9.039372 -23.0239 -0.9005535 -90.04431 20.30126 16.24964 0 0 -20.63533 13.8601 15.75538 -3.005764
